<svg version="1.1" xmlns="http://www.w3.org/2000/svg" xmlns:xlink="http://www.w3.org/1999/xlink" width="128.78252" height="30.5" viewBox="0,0,128.78252,30.5"><g transform="translate(-198.5,-160.75)"><g data-paper-data="{&quot;isPaintingLayer&quot;:true}" fill-rule="nonzero" stroke-linejoin="miter" stroke-miterlimit="10" stroke-dasharray="" stroke-dashoffset="0" style="mix-blend-mode: normal"><text transform="translate(198.75,186) scale(0.5,0.5)" font-size="40" xml:space="preserve" fill="#f08cf7" fill-rule="nonzero" stroke="none" stroke-width="1" stroke-linecap="butt" stroke-linejoin="miter" stroke-miterlimit="10" stroke-dasharray="" stroke-dashoffset="0" font-family="Pixel" font-weight="normal" text-anchor="start" style="mix-blend-mode: normal"><tspan x="0" dy="0">u is ded </tspan></text><g fill="none" stroke="#f192f7" stroke-width="2.5" stroke-linecap="round"><path d="M294.69057,173.79874c0,0 0.54121,14.72796 -5.50128,14.7295c-6.06863,0.00154 -5.33137,-14.60761 -5.33137,-14.60761"/><path d="M326.02003,173.27952c0,0 0.54122,14.72796 -5.50127,14.7295c-6.06863,0.00155 -5.33137,-14.60761 -5.33137,-14.60761"/><g><path d="M297.01462,187.77348c0,0 -0.6549,-11.66004 4.20178,-11.71469c4.85668,-0.05465 3.13108,11.63218 3.13108,11.63218"/><path d="M304.84745,187.68534c0,0 -0.6549,-11.66003 4.20178,-11.71468c4.85668,-0.05465 3.13108,11.63217 3.13108,11.63217"/></g></g></g></g></svg>