<svg version="1.1" xmlns="http://www.w3.org/2000/svg" xmlns:xlink="http://www.w3.org/1999/xlink" width="281.45779" height="30.5" viewBox="0,0,281.45779,30.5"><g transform="translate(-123.5,-160.75)"><g data-paper-data="{&quot;isPaintingLayer&quot;:true}" fill-rule="nonzero" stroke-linejoin="miter" stroke-miterlimit="10" stroke-dasharray="" stroke-dashoffset="0" style="mix-blend-mode: normal"><text transform="translate(123.75,186) scale(0.5,0.5)" font-size="40" xml:space="preserve" fill="#f08cf7" fill-rule="nonzero" stroke="none" stroke-width="1" stroke-linecap="butt" stroke-linejoin="miter" stroke-miterlimit="10" stroke-dasharray="" stroke-dashoffset="0" font-family="Pixel" font-weight="normal" text-anchor="start" style="mix-blend-mode: normal"><tspan x="0" dy="0">u have recived the die</tspan></text><g fill="none" stroke="#f192f7" stroke-width="2.5" stroke-linecap="round"><path d="M372.36584,172.63208c0,0 0.54121,14.72796 -5.50128,14.7295c-6.06863,0.00154 -5.33137,-14.60761 -5.33137,-14.60761"/><path d="M403.6953,172.11286c0,0 0.54122,14.72796 -5.50127,14.7295c-6.06863,0.00155 -5.33137,-14.60761 -5.33137,-14.60761"/><g><path d="M374.68989,186.60682c0,0 -0.6549,-11.66004 4.20178,-11.71469c4.85668,-0.05465 3.13108,11.63218 3.13108,11.63218"/><path d="M382.52272,186.51868c0,0 -0.6549,-11.66003 4.20178,-11.71468c4.85668,-0.05465 3.13108,11.63217 3.13108,11.63217"/></g></g></g></g></svg>