<svg version="1.1" xmlns="http://www.w3.org/2000/svg" xmlns:xlink="http://www.w3.org/1999/xlink" width="412.56925" height="307.12553" viewBox="0,0,412.56925,307.12553"><g transform="translate(-25.2154,-9.21538)"><g data-paper-data="{&quot;isPaintingLayer&quot;:true}" fill-rule="nonzero" stroke="none" stroke-linecap="butt" stroke-linejoin="miter" stroke-miterlimit="10" stroke-dasharray="" stroke-dashoffset="0" style="mix-blend-mode: normal"><path d="M63.2154,73c0,-5.95618 4.82844,-10.78462 10.78462,-10.78462c5.95618,0 10.78462,4.82844 10.78462,10.78462c0,5.95618 -4.82844,10.78462 -10.78462,10.78462c-5.95618,0 -10.78462,-4.82844 -10.78462,-10.78462z" fill="#99ff8f" stroke-width="0.5"/><path d="M25.2154,35c0,-4.85161 3.93301,-8.78462 8.78462,-8.78462c4.85161,0 8.78462,3.93301 8.78462,8.78462c0,4.85161 -3.93301,8.78462 -8.78462,8.78462c-4.85161,0 -8.78462,-3.93301 -8.78462,-8.78462z" fill="#ff8ff6" stroke-width="0.5"/><path d="M150.2154,24c0,-8.16532 6.6193,-14.78462 14.78462,-14.78462c8.16532,0 14.78462,6.6193 14.78462,14.78462c0,8.16532 -6.6193,14.78462 -14.78462,14.78462c-8.16532,0 -14.78462,-6.6193 -14.78462,-14.78462z" fill="#edff8f" stroke-width="0.5"/><path d="M211.21541,83c0,-6.50846 5.27616,-11.78462 11.78462,-11.78462c6.50846,0 11.78462,5.27616 11.78462,11.78462c0,6.50846 -5.27616,11.78462 -11.78462,11.78462c-6.50846,0 -11.78462,-5.27616 -11.78462,-11.78462z" fill="#8fbeff" stroke-width="0.5"/><path d="M119.21541,166c0,-4.85161 3.93301,-8.78462 8.78462,-8.78462c4.85161,0 8.78462,3.93301 8.78462,8.78462c0,4.85161 -3.93301,8.78462 -8.78462,8.78462c-4.85161,0 -8.78462,-3.93301 -8.78462,-8.78462z" fill="#ff8fbf" stroke-width="0.5"/><path d="M306.2154,116c0,-4.85161 3.93301,-8.78462 8.78462,-8.78462c4.85161,0 8.78462,3.93301 8.78462,8.78462c0,4.85161 -3.93301,8.78462 -8.78462,8.78462c-4.85161,0 -8.78462,-3.93301 -8.78462,-8.78462z" fill="#ff8f8f" stroke-width="0.5"/><path d="M415.21541,120.50001c0,-6.23232 5.0523,-11.28462 11.28462,-11.28462c6.23232,0 11.28462,5.0523 11.28462,11.28462c0,6.23232 -5.0523,11.28462 -11.28462,11.28462c-6.23232,0 -11.28462,-5.0523 -11.28462,-11.28462z" fill="#ffd68f" stroke-width="0.5"/><path d="M350.21541,37c0,-4.85161 3.93301,-8.78462 8.78462,-8.78462c4.85161,0 8.78462,3.93301 8.78462,8.78462c0,4.85161 -3.93301,8.78462 -8.78462,8.78462c-4.85161,0 -8.78462,-3.93301 -8.78462,-8.78462z" fill="#cc8fff" stroke-width="0.5"/><path d="M287.2154,27.50001c0,-6.23232 5.0523,-11.28462 11.28462,-11.28462c6.23232,0 11.28462,5.0523 11.28462,11.28462c0,6.23232 -5.0523,11.28462 -11.28462,11.28462c-6.23232,0 -11.28462,-5.0523 -11.28462,-11.28462z" fill="#8fffe9" stroke-width="0.5"/><text transform="translate(49.4091,311.09091) scale(0.5,0.5)" font-size="40" xml:space="preserve" fill="#e87fff" fill-rule="nonzero" stroke="none" stroke-width="1" stroke-linecap="butt" stroke-linejoin="miter" stroke-miterlimit="10" stroke-dasharray="" stroke-dashoffset="0" font-family="Pixel" font-weight="normal" text-anchor="start" style="mix-blend-mode: normal"><tspan x="0" dy="0"> </tspan></text></g></g></svg>