<svg version="1.1" xmlns="http://www.w3.org/2000/svg" xmlns:xlink="http://www.w3.org/1999/xlink" width="15.22877" height="4.23138" viewBox="0,0,15.22877,4.23138"><g transform="translate(-232.38561,-177.88432)"><g data-paper-data="{&quot;isPaintingLayer&quot;:true}" fill-rule="nonzero" stroke-linejoin="miter" stroke-miterlimit="10" stroke-dasharray="" stroke-dashoffset="0" style="mix-blend-mode: normal"><path d="M232.3893,179.7641c0.06643,-1.10257 1.01409,-1.94253 2.11666,-1.8761c1.10257,0.06643 1.94253,1.01409 1.8761,2.11666c-0.06643,1.10257 -1.01408,1.94253 -2.11666,1.8761c-1.10257,-0.06643 -1.94253,-1.01409 -1.8761,-2.11666z" fill="#000000" stroke="none" stroke-width="0.5" stroke-linecap="butt"/><path d="M243.61794,179.99535c0.06643,-1.10257 1.01408,-1.94253 2.11666,-1.8761c1.10257,0.06643 1.94253,1.01409 1.8761,2.11666c-0.06643,1.10257 -1.01409,1.94253 -2.11666,1.8761c-1.10257,-0.06643 -1.94253,-1.01409 -1.8761,-2.11666z" fill="#000000" stroke="none" stroke-width="0.5" stroke-linecap="butt"/><path d="M239.84813,179.87429c0,0 -0.59888,0.78983 -0.92123,0.78194c-0.2982,-0.00731 -0.94607,-0.82765 -0.94607,-0.82765" fill="none" stroke="#000000" stroke-width="1" stroke-linecap="round"/><path d="M241.78197,179.92401c0,0 -0.2943,0.38814 -0.58133,0.61752c-0.12242,0.09783 -0.24352,0.16679 -0.33989,0.16442c-0.2982,-0.00731 -0.94608,-0.82765 -0.94608,-0.82765" fill="none" stroke="#000000" stroke-width="1" stroke-linecap="round"/></g></g></svg>