<svg version="1.1" xmlns="http://www.w3.org/2000/svg" xmlns:xlink="http://www.w3.org/1999/xlink" width="22.05586" height="41.19623" viewBox="0,0,22.05586,41.19623"><g transform="translate(-228.97206,-160.59643)"><g data-paper-data="{&quot;isPaintingLayer&quot;:true}" fill-rule="nonzero" stroke-linejoin="miter" stroke-miterlimit="10" stroke-dasharray="" stroke-dashoffset="0" style="mix-blend-mode: normal"><path d="M231.61732,168.66406l-0.24177,-7.0817l4.63969,3.25815" data-paper-data="{&quot;index&quot;:null}" fill="#e9c8e7" stroke="#d6b7d4" stroke-width="1" stroke-linecap="round"/><path d="M230.02793,173.59681c0,-5.79899 4.70101,-10.5 10.5,-10.5c5.79899,0 10.5,4.70101 10.5,10.5c0,5.79899 -4.81212,6.72222 -10.61111,6.72222c-5.79899,0 -10.38889,-0.92323 -10.38889,-6.72222z" fill="#d6b7d4" stroke="none" stroke-width="0.5" stroke-linecap="butt"/><path d="M244.60579,165.32069l4.51488,-3.42901l-0.00564,6.32807" fill="#e9c8e7" stroke="#d6b7d4" stroke-width="1" stroke-linecap="round"/><path d="M235.82397,180.19203l0.04388,16.34482" fill="none" stroke="#d6b7d4" stroke-width="3" stroke-linecap="round"/><path d="M240.37262,179.93643l0.53333,20.35623" fill="none" stroke="#d6b7d4" stroke-width="3" stroke-linecap="round"/><path d="M245.5631,196.02425l-0.26667,-17.87208" fill="none" stroke="#d6b7d4" stroke-width="3" stroke-linecap="round"/><g><path d="M228.97441,171.28587c0.05296,-1.1033 0.99029,-1.95477 2.09359,-1.90181c1.1033,0.05296 1.95477,0.99029 1.90181,2.09359c-0.05296,1.1033 -0.99029,1.95477 -2.09359,1.90181c-1.1033,-0.05296 -1.95477,-0.99029 -1.90181,-2.09359z" fill="#000000" stroke="none" stroke-width="0.5" stroke-linecap="butt"/><path d="M240.20503,171.37996c0.05296,-1.1033 0.99029,-1.95477 2.09359,-1.90181c1.1033,0.05296 1.95477,0.99029 1.90181,2.09359c-0.05296,1.1033 -0.99029,1.95477 -2.09359,1.90181c-1.1033,-0.05296 -1.95477,-0.99029 -1.90181,-2.09359z" fill="#000000" stroke="none" stroke-width="0.5" stroke-linecap="butt"/><path d="M235.92948,170.93608c0,0 -0.58918,0.79708 -0.9116,0.79313c-0.29827,-0.00366 -0.95612,-0.81604 -0.95612,-0.81604" fill="none" stroke="#000000" stroke-width="1" stroke-linecap="round"/><path d="M237.86378,170.96218c0,0 -0.58917,0.79709 -0.91159,0.79314c-0.29827,-0.00366 -0.95612,-0.81604 -0.95612,-0.81604" fill="none" stroke="#000000" stroke-width="1" stroke-linecap="round"/></g></g></g></svg>