<svg version="1.1" xmlns="http://www.w3.org/2000/svg" xmlns:xlink="http://www.w3.org/1999/xlink" width="535.53303" height="452.79358" viewBox="0,0,535.53303,452.79358"><defs><radialGradient cx="240" cy="180" r="266.51652" gradientUnits="userSpaceOnUse" id="color-1"><stop offset="0" stop-color="#ffffff"/><stop offset="1" stop-color="#ffcdfc"/></radialGradient></defs><g transform="translate(27.76652,46.39679)"><g data-paper-data="{&quot;isPaintingLayer&quot;:true}" fill-rule="nonzero" stroke-linecap="butt" stroke-linejoin="miter" stroke-miterlimit="10" stroke-dasharray="" stroke-dashoffset="0" style="mix-blend-mode: normal"><path d="M-26.51652,405.14679v-450.29358h533.03303v450.29358z" fill="url(#color-1)" stroke="#d6b7d4" stroke-width="2.5"/><path d="M63.21538,73c0,-5.95618 4.82844,-10.78462 10.78462,-10.78462c5.95618,0 10.78462,4.82844 10.78462,10.78462c0,5.95618 -4.82844,10.78462 -10.78462,10.78462c-5.95618,0 -10.78462,-4.82844 -10.78462,-10.78462z" fill="#99ff8f" stroke="none" stroke-width="0.5"/><path d="M25.21538,35c0,-4.85161 3.93301,-8.78462 8.78462,-8.78462c4.85161,0 8.78462,3.93301 8.78462,8.78462c0,4.85161 -3.93301,8.78462 -8.78462,8.78462c-4.85161,0 -8.78462,-3.93301 -8.78462,-8.78462z" fill="#ff8ff6" stroke="none" stroke-width="0.5"/><path d="M150.21538,24c0,-8.16532 6.6193,-14.78462 14.78462,-14.78462c8.16532,0 14.78462,6.6193 14.78462,14.78462c0,8.16532 -6.6193,14.78462 -14.78462,14.78462c-8.16532,0 -14.78462,-6.6193 -14.78462,-14.78462z" fill="#edff8f" stroke="none" stroke-width="0.5"/><path d="M211.21539,83c0,-6.50846 5.27616,-11.78462 11.78462,-11.78462c6.50846,0 11.78462,5.27616 11.78462,11.78462c0,6.50846 -5.27616,11.78462 -11.78462,11.78462c-6.50846,0 -11.78462,-5.27616 -11.78462,-11.78462z" fill="#8fbeff" stroke="none" stroke-width="0.5"/><path d="M119.21539,166c0,-4.85161 3.93301,-8.78462 8.78462,-8.78462c4.85161,0 8.78462,3.93301 8.78462,8.78462c0,4.85161 -3.93301,8.78462 -8.78462,8.78462c-4.85161,0 -8.78462,-3.93301 -8.78462,-8.78462z" fill="#ff8fbf" stroke="none" stroke-width="0.5"/><path d="M306.21538,116c0,-4.85161 3.93301,-8.78462 8.78462,-8.78462c4.85161,0 8.78462,3.93301 8.78462,8.78462c0,4.85161 -3.93301,8.78462 -8.78462,8.78462c-4.85161,0 -8.78462,-3.93301 -8.78462,-8.78462z" fill="#ff8f8f" stroke="none" stroke-width="0.5"/><path d="M415.21539,120.50001c0,-6.23232 5.0523,-11.28462 11.28462,-11.28462c6.23232,0 11.28462,5.0523 11.28462,11.28462c0,6.23232 -5.0523,11.28462 -11.28462,11.28462c-6.23232,0 -11.28462,-5.0523 -11.28462,-11.28462z" fill="#ffd68f" stroke="none" stroke-width="0.5"/><path d="M350.21539,37c0,-4.85161 3.93301,-8.78462 8.78462,-8.78462c4.85161,0 8.78462,3.93301 8.78462,8.78462c0,4.85161 -3.93301,8.78462 -8.78462,8.78462c-4.85161,0 -8.78462,-3.93301 -8.78462,-8.78462z" fill="#cc8fff" stroke="none" stroke-width="0.5"/><path d="M287.21539,27.50001c0,-6.23232 5.0523,-11.28462 11.28462,-11.28462c6.23232,0 11.28462,5.0523 11.28462,11.28462c0,6.23232 -5.0523,11.28462 -11.28462,11.28462c-6.23232,0 -11.28462,-5.0523 -11.28462,-11.28462z" fill="#8fffe9" stroke="none" stroke-width="0.5"/></g></g></svg>